<svg xmlns="http://www.w3.org/2000/svg" viewBox="0 0 64 64"><rect x="7" y="8" width="50" height="54" rx="7" fill="#6B6570" stroke="#1D1D1D" stroke-width="3"/><rect x="12.5" y="14" width="39" height="43" rx="2.5" fill="#F2F2F2" stroke="#1D1D1D" stroke-width="2.5"/><rect x="21" y="3" width="22" height="11" rx="2.5" fill="#D9A066" stroke="#1D1D1D" stroke-width="2.5"/><circle cx="32" cy="7" r="1.6" fill="#1D1D1D"/><g stroke="#1D1D1D" stroke-width="2.4" stroke-linecap="round" stroke-linejoin="round"><rect x="17" y="19" width="9" height="9" rx="2" fill="#F26B6B"/><rect x="17" y="31" width="9" height="9" rx="2" fill="#F7D46B"/><rect x="17" y="43" width="9" height="9" rx="2" fill="#5FD3A5"/><path d="M19.5 23.5l2.5 2.5 5-6M19.5 35.5l2.5 2.5 5-6M19.5 47.5l2.5 2.5 5-6" fill="none"/><path d="M31 21h15M31 26h11M31 33h15M31 38h11M31 45h15M31 50h11" fill="none"/></g></svg>